<svg width="66" height="40" fill="none" xmlns="http://www.w3.org/2000/svg"><path fill-rule="evenodd" clip-rule="evenodd" d="M52.694 25.242a4.778 4.778 0 0 1-.785-.253 1.829 1.829 0 0 1-.433-.266.322.322 0 0 1-.107-.282c.122-1.272-.012-2.394.11-3.655.506-5.115 3.722-3.495 6.608-4.33 1.658-.467 3.315-1.386 3.921-3.194a.876.876 0 0 0-.194-.852 37.06 37.06 0 0 0-6.259-5.678C47.93 1.303 38.019-.95 28.918.368a.473.473 0 0 0-.337.725 14.024 14.024 0 0 0 4.417 4.342c.317.196.19.62-.174.538-.855-.191-1.954-.565-2.987-1.295a.36.36 0 0 0-.342-.042c-.462.184-1.129.45-1.68.688a.458.458 0 0 0-.121.772c4.571 3.963 11.221 4.565 16.429 1.394.317-.193.825.204.722.561a27.767 27.767 0 0 0-.558 2.429c-1.291 6.533-5.014 6.026-9.622 4.38-9.209-3.337-14.433-.487-19.078-6.129-.322-.392-.89-.528-1.274-.195a4.413 4.413 0 0 0-1.526 3.337c0 1.534.792 2.848 1.966 3.634a.337.337 0 0 0 .451-.082c.286-.362.52-.602.812-.753.319-.166.474.29.205.528-.987.874-1.27 1.914-1.914 3.965-1.013 3.216-.583 6.508-5.318 7.369-2.507.126-2.456 1.823-3.368 4.355-1.058 3.056-2.443 4.41-5.007 7.08-.35.366-.38.95.005 1.278 1.024.873 2.08.921 3.154.48 2.659-1.115 4.71-4.559 6.634-6.787 2.152-2.481 7.318-1.418 11.217-3.849 2.104-1.29 3.367-2.937 2.963-5.404-.065-.398.39-.636.555-.269.313.698.518 1.442.603 2.21.023.202.203.351.405.34 4.22-.238 9.675 4.416 14.773 5.675.31.076.531-.282.356-.549a9.412 9.412 0 0 1-.816-1.522A10.321 10.321 0 0 1 39.947 28c-.094-.396.485-.503.683-.146 1.307 2.357 3.92 4.57 7.558 4.834 1.24.101 2.608-.05 4.026-.481 1.696-.507 3.266-1.165 5.14-.81 1.392.253 2.684.962 3.494 2.152 1.137 1.658 3.537 2.097 4.817.364.174-.236.188-.55.073-.82-2.816-6.603-9.969-7.056-13.043-7.85z" fill="#fff"/></svg>