<svg xmlns="http://www.w3.org/2000/svg" width="259.971" height="330"><path style="fill:#000;fill-opacity:1;stroke:none" d="M-430.14 1252.362c-15.526-.07-32 15.28-31.844 31.438v298.562h228.125c15.525.07 31.999-15.31 31.843-31.469v-298.531H-430.14zm6.468 5.906h214.969v284.969c.146 15.424-15.402 30.096-30.031 30.031h-214.97V1288.3c-.145-15.423 15.402-30.098 30.032-30.032z" transform="translate(461.985 -1252.362)"/><path style="fill:#8b1e25;fill-opacity:1;stroke:none" d="M-423.703 1258.112c-14.63-.067-30.209 14.608-30.063 30.031v157.97l26.72-45.157-25-62 52.609-80.688-24.266-.156zm-30.063 196.875.047 118.297h53.508l-53.555-118.3zm245.059 1.344-47.965 116.937h17.928c14.63.065 30.178-14.607 30.032-30.03l.005-86.906zm-122.406 46.647-62.653 70.29 136.235.016-73.582-70.307z" transform="translate(461.985 -1252.362)"/><path style="fill:#a42f38;fill-opacity:1;stroke:none" d="m-399.418 1258.238.72 73.016-53.38 7.68 24.692 61.289 29.28-69.313 73-28-74.312-44.672zm-28.468 144.14-25.907 43.782.157 5.563 57.53 17.099-.858 104.432h3.218l62.64-70.25 73.563 70.297.875-.031 47.961-116.93v-3.562l-122.398 49.132-64.995-33.105-31.786-66.426z" transform="translate(461.985 -1252.362)"/><path style="fill:#932630;fill-opacity:1;stroke:none" d="m-399.411 1258.224-52.683 80.728 53.423-7.702-.74-73.026zm-54.313 193.375v3.406h-.031l53.5 118.25 3.324.013.832-104.45-57.625-17.219z" transform="translate(461.985 -1252.362)"/><path style="fill:#c68a66;fill-opacity:1;stroke:none" d="m-230 1402.112-29.008-71.989-71.492-27.51 72.438-44.313-.957 71.82 50.321 15.576-.013 4.408-20.789 52.008 20.797 50.668-50.801 20.392 29.504-71.06z" transform="translate(461.985 -1252.362)"/><path style="fill:#be785f;fill-opacity:1;stroke:none" d="m-330.406 1302.531 72.344-44.219-141.125-.03 68.78 44.25zm71.375 27.562 50.334 15.608-49.365-87.42-.97 71.813zm50.312 20-21 52.094 21 50.594v-102.688z" transform="translate(461.985 -1252.362)"/><path style="fill:#aa4042;fill-opacity:1;stroke:none" d="m-208.563 1257.781-49.5.5 49.358 87.421.143-87.92zm-122.937 43.844-66.5 28.5-31.5 71.5 33.389 67.202 64.995 33.121 71.62-28.776 29.621-71.078-29.125-71.969-72.5-28.5z" transform="translate(461.985 -1252.362)"/><path d="M-674.851 1133.311c-1.166.021-1.982.16-2.188.375-.41.43-.049 2.46.782 4.5 1.351 3.324 1.927 3.754 5.687 4.094 2.31.21 4.746.435 5.406.531.66.096 1.495-.28 1.844-.843.35-.563.113-2.527-.5-4.375-1.045-3.152-1.448-3.408-6.781-4.032-1.563-.183-3.085-.27-4.25-.25zM-716.04 1141c-2.215 0-9.36 3.986-9.968 5.562-.685 1.778 6.217 10.5 8.312 10.5.807 0 3.262-1.202 5.469-2.656 2.206-1.454 4.031-3.158 4.031-3.812 0-1.842-6.341-9.594-7.844-9.594zm94.407 7.031c-2.425 0-.296 3.842 3.437 6.188 4.508 2.832 6.781 3.45 6.781 1.875 0-1.07-8.865-8.063-10.218-8.063zm-45.344.344c-3.421.084-6.765.594-12.375 1.594-11.768 2.097-26.145 6.65-31.031 9.843-18.519 12.103-34.553 29.99-49.125 54.813-20.779 35.395-32.212 76.742-35.97 129.906l-.655 9.156c.109.054.247.108.406.157h51.937c28.805 0 52.585-.211 52.844-.47.259-.257-1.448-6.253-3.812-13.312-7.665-22.878-12.576-49.59-12.625-68.562-.065-24.925 7.658-52.563 19.75-70.656 6.497-9.722 16.57-19.693 19.937-19.72 1.29-.01 4.347-1.367 6.813-3.03 2.466-1.664 7.652-3.993 11.5-5.157 11.916-3.604 27.986-1.552 42.843 5.438 5.25 2.47 6.598 2.78 7.313 1.656 1.82-2.862.748-4.987-5-9.75-15.187-12.584-31.614-19.212-52.719-21.312-3.571-.356-6.167-.572-8.562-.594-.5-.01-.98-.012-1.47 0zm-94.688 28.437c-2.25.415-9.753 10.121-8.468 11.282 2.753 2.487 11.983 7.964 12.687 7.53.454-.278 2.173-2.487 3.844-4.905 1.67-2.418 3.031-4.816 3.031-5.313 0-.772-6.666-6.073-10.719-8.531a.522.522 0 0 0-.375-.062zm139.72 1.688c-.802 0-1.49.148-1.845.5-.552.55-.721 1.757-.375 2.656.824 2.136 8.22 1.742 8.22-.437 0-1.355-3.599-2.721-6-2.72zm-29.97 1c-.416.01-.934.1-1.562.25-3.655.87-6.344 2.259-6.344 3.281 0 .447.922 1.626 2.031 2.625 1.11 1 2 2.445 2 3.188 0 1.637.79 1.678 4.907.25 3.619-1.257 3.711-1.677 1.687-6.5-.987-2.353-1.469-3.114-2.719-3.094zm-25.75 19.719c-1.241 0-4.343 3.338-4.343 4.687 0 1.733 5.047 9.375 6.187 9.375.468 0 1.566-1.128 2.469-2.5 1.558-2.367 1.502-2.727-1.031-7.031-1.468-2.494-2.933-4.531-3.282-4.531zm-118.625 33.125c-1.356 0-5.687 10.408-5.687 13.656 0 1.21 11.088 6.162 14.219 6.344 1.137.066 2.297-1.903 3.843-6.594 1.798-5.452 1.941-6.914.875-7.875-1.672-1.509-11.297-5.531-13.25-5.531zm101.907.406c-.293.058-.53.277-.75.625-.524.824-.96 2.011-.97 2.656-.007.645-.265 1.87-.593 2.719-.385 1 .948 2.974 3.781 5.594 4.904 4.533 5.413 4.721 6.282 2.468 1.532-3.975.541-7.1-3.47-11-2.1-2.043-3.223-2.95-3.968-3.062a.91.91 0 0 0-.312 0zm-5.313 38.937c-1.138-.045-1.446.836-1.437 2.594.028 5.62 1.033 7.033 6.875 9.625 7.67 3.404 8.31 3.361 7.625-.594-.928-5.346-1.098-5.576-6.657-8.75-3.306-1.888-5.268-2.83-6.406-2.875zm-116.656 28.938c-1.694 0-6.38 15.15-5.438 17.594.509 1.318 4.267 1.949 13.844 2.312l4.625.156 1.844-8.062c1.11-4.842 1.495-8.356.937-8.844-.904-.791-12.739-3.156-15.812-3.156zm124.062 20.375c-.3.01-.495.058-.562.125-.333.33.177 3.067 1.125 6.062 1.458 4.607 2.15 5.493 4.469 5.844 3.855.584 14.343.817 14.343.313 0-2.093-4.281-9.56-5.718-9.97-4.277-1.218-11.55-2.448-13.657-2.374zm73.47 49.125c-2.397 0-4.877.084-6.845.281-5.788.579-7.734 1.262-10.25 3.5-2.75 2.447-3.147 3.489-3.468 9.156-.292 5.15.022 7.045 1.687 9.688 2.578 4.09 5.547 5.261 13.5 5.281 7.552.018 9.03.79 8.594 4.594l-.344 2.906-11.344.281-11.343.282v9.968h12.656c9.339 0 13.41-.376 15.594-1.5 4.159-2.141 6.03-6.343 6.03-13.593 0-5.683-.281-6.452-3.437-9.594-3.473-3.458-3.916-3.574-14.718-3.844-4.381-.11-6.032-1.11-6.032-3.656 0-2.831 3.807-3.938 13.657-3.938h8.5v-8.843l-6.063-.688c-1.668-.193-3.979-.284-6.375-.281zm-76.282.656-5.281.313-5.313.312-.281 21.063c-.15 11.581-.022 21.607.25 22.312.31.804 2.38 1.281 5.562 1.281h5.063v-45.281zm-112.938.125V1416.061h11l.313-5.75c.179-3.415.737-5.781 1.406-5.78.622 0 3.278 2.605 5.875 5.78l4.719 5.75h6c3.297 0 6-.244 6-.562 0-.318-2.067-3.208-4.563-6.438-2.495-3.229-4.53-6.204-4.53-6.593 0-.39 2.035-2.593 4.53-4.907l4.5-4.187c.016-.054.047-.101.063-.156v-7.688c0-7.545-.126-7.922-3.438-11.219l-3.437-3.406h-28.438zm68.688 0c-16.781.035-17.25.782-17.25 26.531v18.625h5.031c5.013 0 5.047-.01 5.063-3.25.024-5.212.975-5.904 7.625-5.562l5.968.281.313 4.344.312 4.312 5.22-.312 5.25-.313.312-16.562c.484-26.232-.726-28.13-17.844-28.094zm60.375 0v45.219l14.875-.281 14.875-.282V1405.531l-9.063-.5-9.093-.5-.282-16.813-.25-16.813H-678.976zm-110.563 10.031c1.575.021 3.108.236 4.125.625 2.254.861 2.254 9.952 0 10.813-2.714 1.037-9.04.673-10.312-.594-.666-.663-1.219-2.824-1.219-4.812 0-1.988.553-4.15 1.219-4.813.795-.792 3.562-1.253 6.187-1.219zm50.157.031c2.473 0 4.984.426 5.75 1.188.665.662 1.218 3.496 1.218 6.312 0 2.816-.553 5.65-1.218 6.313-1.83 1.821-9.415 1.514-11.407-.469-2.049-2.04-1.574-11.062.657-12.469.772-.487 2.276-.762 3.937-.844.346-.017.71-.03 1.063-.03z" style="fill:#f2f2f2;fill-opacity:1;stroke:none" transform="translate(838.166 -1117.305)"/><script/></svg>