<?xml version="1.0" standalone="no"?>
<svg xmlns="http://www.w3.org/2000/svg" viewBox="0 0 169.2 29" width="169.2" height="29"><g fill="#000000" color="#000000" transform="translate(0, 0) scale(0.6904762)"><svg width="42.0" height="42.0" x="0.0" y="0.0" viewBox="0 0 42 42"><path fill="currentColor" fill-rule="nonzero" d="M21 41.41L41.41.59H.59L21 41.41zm0-7.61l-11.5-23h15.4l-1.7 3.4H15l6 12 9.4-18.8H7.8L6.1 4h29.8L21 33.8z"></path></svg></g><line x1="41" y1="1" x2="41" y2="28" stroke="#000000" stroke-linecap="round"></line><path fill="#000000" fill-rule="nonzero" d="M5.62 19.30Q2.52 19.30 1.26 16.49Q0 13.68 0 9.58L0 9.58Q0 7.37 0.58 5.33Q1.15 3.29 2.44 1.96Q3.72 0.62 5.69 0.62L5.69 0.62Q7.20 0.62 8.34 1.56Q9.48 2.50 10.09 4.00Q10.70 5.50 10.70 7.13L10.70 7.13L7.30 7.30Q7.30 6.22 6.94 4.84Q6.58 3.46 5.50 3.46L5.50 3.46Q4.37 3.46 3.94 5.26Q3.50 7.06 3.50 9.58L3.50 9.58Q3.50 12.70 3.98 14.58Q4.46 16.46 5.83 16.46L5.83 16.46Q6.79 16.46 7.20 15.32Q7.61 14.18 7.73 12.55L7.73 12.55L10.73 12.84Q10.73 14.57 10.15 16.04Q9.58 17.52 8.42 18.41Q7.27 19.30 5.62 19.30L5.62 19.30ZM13.03 19.10L13.03 1.39L16.39 0.96L16.39 7.18Q18.46 5.28 20.26 5.28L20.26 5.28Q21.53 5.28 22.33 6.20Q23.14 7.13 23.14 8.69L23.14 8.69L23.14 18.82L19.78 19.10L19.78 9.91Q19.78 9.02 19.45 8.59Q19.13 8.16 18.60 8.16L18.60 8.16Q18.17 8.16 17.69 8.38Q17.21 8.59 16.39 9.07L16.39 9.07L16.39 18.82L13.03 19.10ZM28.18 19.27Q27.31 19.27 26.62 18.73Q25.92 18.19 25.54 17.27Q25.15 16.34 25.15 15.19L25.15 15.19Q25.15 12.58 26.94 11.51Q28.73 10.44 31.10 10.30L31.10 10.30Q31.10 9 30.94 8.38Q30.77 7.75 30.12 7.75L30.12 7.75Q29.57 7.75 29.28 8.18Q28.99 8.62 28.92 9.29L28.92 9.29L25.63 8.71Q25.87 6.86 27.14 6.07Q28.42 5.28 30.12 5.28L30.12 5.28Q32.30 5.28 33.40 6.43Q34.49 7.58 34.49 9.43L34.49 9.43L34.49 16.42Q34.49 17.54 34.85 18.82L34.85 18.82L31.56 19.10L31.18 17.45Q30.74 18.22 29.90 18.74Q29.06 19.27 28.18 19.27L28.18 19.27ZM29.74 16.87Q30.14 16.87 30.42 16.68Q30.70 16.49 31.10 16.06L31.10 16.06L31.10 12.31Q29.90 12.31 29.18 12.96Q28.46 13.61 28.46 14.98L28.46 14.98Q28.46 15.89 28.79 16.38Q29.11 16.87 29.74 16.87L29.74 16.87ZM40.18 19.27Q38.86 19.27 38.02 18.35Q37.18 17.42 37.18 15.86L37.18 15.86L37.18 5.74L40.54 5.45L40.54 14.50Q40.54 15.46 40.85 15.88Q41.16 16.30 41.81 16.30L41.81 16.30Q42.31 16.30 42.89 16.04Q43.46 15.79 43.92 15.24L43.92 15.24L43.92 5.74L47.30 5.45L47.30 18.82L43.92 19.10L43.92 17.38Q43.08 18.34 42.08 18.80Q41.09 19.27 40.18 19.27L40.18 19.27ZM50.86 19.10L50.86 7.99L49.20 7.99L49.32 5.45L50.86 5.45L50.86 5.21Q50.86 3.79 51.04 2.92Q51.22 2.04 51.95 1.44Q52.68 0.84 54.22 0.84L54.22 0.84Q55.68 0.84 56.50 1.20L56.50 1.20L56.50 3.22L55.75 3.22Q54.79 3.22 54.52 3.74Q54.24 4.27 54.24 5.21L54.24 5.21L54.24 5.45L56.62 5.45L56.47 7.99L54.24 7.99L54.24 18.82L50.86 19.10ZM62.71 19.27Q60.29 19.27 58.98 17.35Q57.67 15.43 57.67 12.24L57.67 12.24Q57.67 9.07 58.97 7.18Q60.26 5.28 62.71 5.28L62.71 5.28Q65.14 5.28 66.47 7.18Q67.80 9.07 67.80 12.24L67.80 12.24Q67.80 15.41 66.47 17.34Q65.14 19.27 62.71 19.27L62.71 19.27ZM62.71 16.78Q63.79 16.78 64.10 15.46Q64.42 14.14 64.42 12.22L64.42 12.22Q64.42 10.30 64.10 8.98Q63.79 7.66 62.71 7.66L62.71 7.66Q61.63 7.66 61.34 8.90Q61.06 10.15 61.06 11.95L61.06 11.95Q61.06 14.16 61.34 15.47Q61.63 16.78 62.71 16.78L62.71 16.78ZM72.98 19.27Q71.66 19.27 70.82 18.35Q69.98 17.42 69.98 15.86L69.98 15.86L69.98 5.74L73.34 5.45L73.34 14.50Q73.34 15.46 73.66 15.88Q73.97 16.30 74.62 16.30L74.62 16.30Q75.12 16.30 75.70 16.04Q76.27 15.79 76.73 15.24L76.73 15.24L76.73 5.74L80.11 5.45L80.11 18.82L76.73 19.10L76.73 17.38Q75.89 18.34 74.89 18.80Q73.90 19.27 72.98 19.27L72.98 19.27ZM83.02 19.10L83.02 5.74L86.38 5.45L86.38 7.63Q87.10 6.60 88.16 5.96Q89.23 5.33 90.89 5.33L90.89 5.33L90.89 8.62Q90.02 8.62 88.62 8.92Q87.22 9.22 86.38 9.96L86.38 9.96L86.38 18.82L83.02 19.10ZM96.10 3.58L92.74 3.72L92.74 0.24L96.10 0L96.10 3.58ZM96.07 18.82L92.71 19.10L92.71 5.74L96.07 5.45L96.07 18.82ZM103.32 19.27Q100.92 19.27 99.65 17.36Q98.38 15.46 98.38 12.29L98.38 12.29Q98.38 9.07 99.67 7.18Q100.97 5.28 103.44 5.28L103.44 5.28Q105.79 5.28 107.04 7.18Q108.29 9.07 108.29 12.29L108.29 12.29Q108.29 12.48 108.22 12.56Q108.14 12.65 108.14 12.67L108.14 12.67L101.74 12.67Q101.74 14.23 102.14 15.52Q102.55 16.80 103.39 16.80L103.39 16.80Q104.33 16.80 104.78 15.72Q105.24 14.64 105.26 14.59L105.26 14.59L107.81 15.55Q107.30 17.28 106.20 18.28Q105.10 19.27 103.32 19.27L103.32 19.27ZM101.74 10.73L104.98 10.73Q104.98 9.29 104.59 8.45Q104.21 7.61 103.39 7.61L103.39 7.61Q102.98 7.61 102.60 8.02Q102.22 8.42 101.98 9.14Q101.74 9.86 101.74 10.73L101.74 10.73ZM110.33 19.10L110.33 5.74L113.69 5.45L113.69 7.63Q114.41 6.60 115.48 5.96Q116.54 5.33 118.20 5.33L118.20 5.33L118.20 8.62Q117.34 8.62 115.93 8.92Q114.53 9.22 113.69 9.96L113.69 9.96L113.69 18.82L110.33 19.10Z" transform="translate(51, 4.852)"></path></svg>